<svg version="1.1" xmlns="http://www.w3.org/2000/svg" xmlns:xlink="http://www.w3.org/1999/xlink" width="143.44689" height="278.50887" viewBox="0,0,143.44689,278.50887"><g transform="translate(-169.69406,-12.96741)"><g data-paper-data="{&quot;isPaintingLayer&quot;:true}" fill-rule="nonzero" stroke-linejoin="miter" stroke-miterlimit="10" stroke-dasharray="" stroke-dashoffset="0" style="mix-blend-mode: normal"><path d="" fill="none" stroke="#000000" stroke-width="2" stroke-linecap="round"/><path d="M273,182.5c0,8.40537 1.22756,30.04122 -6.77718,38.74508c-10.1409,11.02659 -29.8645,5.75492 -39.97282,5.75492c-18.08732,0 -18.75,-25.44618 -18.75,-44.5c0,-19.05382 15.66268,-15 33.75,-15c18.08733,0 31.75,-4.05382 31.75,15z" fill="#00ff52" stroke="#000000" stroke-width="2" stroke-linecap="butt"/><path d="M256.51752,238.50877c0,5.93706 -7.99908,11.23247 -16.97371,11.23247c-8.97463,0 -16.25,-4.81294 -16.25,-10.75c0,-2.89085 -0.68747,-9.61621 2.1186,-11.54818c2.95689,-2.03581 9.52665,0.79818 14.1314,0.79818c3.5503,0 11.90064,-1.41793 14.57389,-0.13991c4.08432,1.95263 2.39981,6.81904 2.39981,10.40744z" fill="#9600d8" stroke="#000000" stroke-width="2" stroke-linecap="butt"/><path d="M236.5578,250.67222c0,0 2.69118,11.36867 1.21763,16.47699c-0.77852,2.69887 -7.19507,5.65413 -9.72468,9.71913c-3.93123,6.31734 -4.27849,13.60794 -4.27849,13.60794" fill="none" stroke="#000000" stroke-width="2" stroke-linecap="round"/><path d="M312.14094,89.0565c0,24.53391 -19.62545,45.18443 -38.32603,60.96442c-3.56691,3.00985 -4.2282,16.42885 -8.34397,17.00716c-10.85107,1.52471 -12.19103,0.61478 -23.73551,0.61478c-12.20365,0 -16.3729,0.53346 -28.61806,-1.42898c-0.85017,-0.13625 -2.18816,-4.4236 -2.79576,-5.1171c-2.41106,-2.7519 -3.33369,-8.98933 -6.11118,-11.55575c-17.214,-15.90579 -33.51637,-36.763 -33.51637,-60.48454c0,-41.47055 31.66396,-75.08908 70.72344,-75.08908c39.05948,0 70.72345,33.61853 70.72345,75.08909z" fill="#fff700" stroke="#000000" stroke-width="2" stroke-linecap="butt"/><path d="M248.12742,167.23949l-27.0244,-70.39599c0,0 -0.37456,-8.64568 2.86977,-9.19724c3.75105,-0.63771 10.8533,12.47155 16.87526,13.11891c7.84151,0.84296 15.78646,-10.28035 17.62639,-10.28035c5.42013,0 1.44487,11.12769 1.44487,11.12769l-25.75266,64.99111z" fill="none" stroke="#000000" stroke-width="2" stroke-linecap="butt"/><path d="M272.14561,186.72594l-63.95979,-2.18884" fill="none" stroke="#000000" stroke-width="2" stroke-linecap="round"/><path d="M271.50974,205.16611l-63.26888,-1.27174" fill="none" stroke="#000000" stroke-width="2" stroke-linecap="round"/><path d="M231.02305,60.08629c0,9.84465 -7.31002,17.82531 -16.32739,17.82531c-9.01737,0 -16.32739,-7.98067 -16.32739,-17.82531c0,-9.84465 7.31002,-17.82531 16.32739,-17.82531c9.01737,0 16.32739,7.98066 16.32739,17.82531z" fill="#ffffff" stroke="#000000" stroke-width="2" stroke-linecap="butt"/><path d="M273.86372,60.23608c0,9.59646 -7.71241,17.37594 -17.22614,17.37594c-9.51373,0 -17.22615,-7.77948 -17.22615,-17.37594c0,-9.59647 7.71241,-17.37593 17.22615,-17.37593c9.51373,0 17.22614,7.77947 17.22614,17.37593z" fill="#ffffff" stroke="#000000" stroke-width="2" stroke-linecap="butt"/><path d="M212.71853,47.67637c3.24296,1.24735 4.81257,5.01266 3.50582,8.41005c-1.30675,3.3974 -4.99502,5.14036 -8.23799,3.893c-3.24296,-1.24735 -4.81258,-5.01267 -3.50583,-8.41006c1.30675,-3.3974 4.99503,-5.14034 8.23799,-3.89299z" fill="#000000" stroke="#000000" stroke-width="2" stroke-linecap="butt"/><path d="M269.1826,63.98556c0,3.88822 -3.21909,7.04025 -7.19004,7.04025c-3.97095,0 -7.19004,-3.15203 -7.19004,-7.04025c0,-3.88822 3.21909,-7.04025 7.19004,-7.04025c3.97095,0 7.19004,3.15203 7.19004,7.04025z" fill="#000000" stroke="#000000" stroke-width="2" stroke-linecap="butt"/><path d="M212.31097,53.6644c0.8691,0.33428 1.22738,1.50553 0.80024,2.61606c-0.42714,1.11052 -1.47796,1.73979 -2.34706,1.4055c-0.8691,-0.33428 -1.22738,-1.50553 -0.80024,-2.61606c0.42714,-1.11052 1.47796,-1.73979 2.34706,-1.4055z" fill="#ffffff" stroke="none" stroke-width="0" stroke-linecap="butt"/><path d="M267.59684,61.21729c0,1.1381 -0.71293,2.06072 -1.59237,2.06072c-0.87944,0 -1.59237,-0.92261 -1.59237,-2.06072c0,-1.1381 0.71293,-2.06072 1.59237,-2.06072c0.87944,0 1.59237,0.92261 1.59237,2.06072z" fill="#ffffff" stroke="none" stroke-width="0" stroke-linecap="butt"/></g></g></svg>